<?xml version="1.0" encoding="iso-8859-1"?>
<!-- Generator: Adobe Illustrator 19.0.0, SVG Export Plug-In . SVG Version: 6.00 Build 0)  -->
<svg xmlns="http://www.w3.org/2000/svg" xmlns:xlink="http://www.w3.org/1999/xlink" version="1.1" id="Capa_1" x="0px" y="0px" viewBox="0 0 512 512" style="enable-background:new 0 0 512 512;" xml:space="preserve" width="512px" height="512px">
<g>
	<g>
		<path d="M195.651,308.415c-13.497,0-24.478,10.98-24.478,24.478s10.981,24.478,24.478,24.478s24.478-10.981,24.478-24.478    S209.148,308.415,195.651,308.415z M195.651,342.372c-5.226,0-9.478-4.251-9.478-9.478c0.001-5.227,4.252-9.478,9.478-9.478    s9.478,4.252,9.478,9.478C205.129,338.121,200.877,342.372,195.651,342.372z" fill="#006DF0"/>
	</g>
</g>
<g>
	<g>
		<path d="M242.251,365.57h-93.199c-4.143,0-7.5,3.358-7.5,7.5v101.875c0,4.143,3.358,7.5,7.5,7.5h93.199c4.142,0,7.5-3.357,7.5-7.5    V373.07C249.751,368.928,246.393,365.57,242.251,365.57z M234.751,467.445h-78.199V380.57h78.199V467.445z" fill="#006DF0"/>
	</g>
</g>
<g>
	<g>
		<path d="M416.016,274.752l-6.751-6.75c-1.772-1.772-4.312-2.543-6.771-2.052l-8.119,1.619l1.62-8.119    c0.49-2.458-0.279-4.999-2.052-6.771l-16.587-16.587c-1.772-1.771-4.311-2.542-6.771-2.051l-8.12,1.62l1.62-8.12    c0.49-2.458-0.279-4.998-2.052-6.771l-16.587-16.586c-1.772-1.772-4.311-2.542-6.771-2.052l-8.119,1.619l1.62-8.119    c0.49-2.458-0.279-4.998-2.052-6.771l-31.305-31.305c17.905-41.181,10.045-90.965-23.581-124.591    C253.981,11.708,225.716,0,195.651,0c-30.064,0-58.33,11.708-79.588,32.967C105.721,43.308,97.611,55.34,91.957,68.728    c-1.611,3.816,0.175,8.216,3.991,9.827c3.818,1.611,8.216-0.176,9.827-3.991c4.897-11.597,11.927-22.024,20.894-30.991    C145.095,25.147,169.593,15,195.651,15s50.557,10.147,68.982,28.573c30.883,30.883,36.69,77.491,17.423,114.289    c-0.024,0.046-0.048,0.092-0.072,0.138c-7.508,14.257-18.739,26.729-32.135,35.691c-9.07,6.068-19.151,10.594-29.721,13.314V169.2    c7.148-3.072,13.572-7.435,19.152-13.015c24.058-24.058,24.058-63.203,0-87.26c-24.058-24.058-63.203-24.058-87.26-0.001    c-23.784,23.784-23.761,63.5-0.001,87.26c5.58,5.58,12.005,9.943,19.153,13.015v37.806c-16.815-4.327-32.064-13.028-44.504-25.469    c-19.719-19.719-30.066-47.013-28.389-74.884c0.251-4.133-2.899-7.687-7.034-7.936c-4.135-0.247-7.688,2.901-7.937,7.036    c-1.936,32.152,10.003,63.641,32.755,86.393c15.271,15.271,34.221,25.64,55.111,30.261v36.878l-55.585,27.04    c-2.581,1.255-4.219,3.874-4.219,6.744V504.5c0,4.142,3.358,7.5,7.5,7.5h153.564c4.142,0,7.5-3.358,7.5-7.5V293.068    c0-2.87-1.638-5.489-4.219-6.744l-55.585-27.04v-36.878c7.094-1.569,13.961-3.802,20.538-6.667L390.349,365.42    c3.402,3.402,7.897,5.275,12.659,5.275c8.77,0,16.238-6.253,17.757-14.867l7.464-42.345    C430.718,299.367,426.152,284.888,416.016,274.752z M162.628,145.579c-18.002-18.002-17.985-48.062,0-66.047    c18.209-18.208,47.838-18.209,66.047,0c18.209,18.209,18.209,47.837,0,66.047c-3.333,3.333-7.068,6.086-11.151,8.244    c-4.03-8.003-12.318-13.509-21.873-13.509s-17.843,5.506-21.873,13.509C169.696,151.666,165.961,148.913,162.628,145.579z     M205.103,164.265c0.001,0.037,0.026,111.603,0.026,111.825c0.002,12.129-18.955,12.238-18.955,0c0,0,0.025-111.643,0.027-111.825    C186.281,152.673,204.466,152.743,205.103,164.265z M264.933,297.76V497H126.369V297.76l44.805-21.795v0.126    c0,13.272,11.222,24.478,24.478,24.478c13.26,0,24.478-11.114,24.478-24.478v-0.126L264.933,297.76z M413.457,310.879    l-7.464,42.346c-0.412,2.339-3.383,3.242-5.037,1.589L254.614,208.472c0.597-0.368,1.18-0.76,1.771-1.139    c2.717-1.746,5.354-3.604,7.911-5.577c0,0,121.485,121.485,121.55,121.55c2.819,2.819,7.675,2.933,10.606,0    c2.929-2.929,2.929-7.677,0-10.606L275.564,191.812c6.073-6.123,11.474-12.957,15.996-20.302l25.123,25.123    c0,0-3.029,15.187-3.033,15.206c-1.03,5.164,3.662,9.852,8.822,8.822l15.206-3.033l10.914,10.913c0,0-3.029,15.186-3.033,15.206    c-1.031,5.166,3.66,9.851,8.822,8.822l15.206-3.033L380.5,260.45c0,0-3.03,15.19-3.033,15.206    c-1.03,5.164,3.661,9.852,8.822,8.822l15.206-3.033l3.915,3.914C412.089,292.038,415.097,301.578,413.457,310.879z" fill="#006DF0"/>
	</g>
</g>
<g>
</g>
<g>
</g>
<g>
</g>
<g>
</g>
<g>
</g>
<g>
</g>
<g>
</g>
<g>
</g>
<g>
</g>
<g>
</g>
<g>
</g>
<g>
</g>
<g>
</g>
<g>
</g>
<g>
</g>
</svg>
