<?xml version="1.0" encoding="utf-8"?>
<!-- Generator: Adobe Illustrator 21.0.2, SVG Export Plug-In . SVG Version: 6.00 Build 0)  -->
<svg version="1.1" id="Layer_1" xmlns="http://www.w3.org/2000/svg" xmlns:xlink="http://www.w3.org/1999/xlink" x="0px" y="0px"
	 width="725px" height="540px" viewBox="0 0 725 540" style="enable-background:new 0 0 725 540;" xml:space="preserve">
<style type="text/css">
	.st0{display:none;fill-rule:evenodd;clip-rule:evenodd;}
	.st1{fill-rule:evenodd;clip-rule:evenodd;fill:#FFFFFF;}
	.st2{fill:#FFFFFF;}
	.st3{display:none;fill:#FFFFFF;}
	.st4{font-family:'OpenSans-Bold';}
	.st5{font-size:137px;}
	.st6{letter-spacing:5;}
</style>
<rect class="st0" width="725" height="539.7"/>
<g>
	<g>
		<path class="st1" d="M170,211.8h14v-55.6h-14V211.8z M202,242h14V122h-14V242z M234,225h14v-84h-14V225z M266,298h14V72h-14V298z
			 M298,237h14V127h-14V237z M330,360h14V0h-14V360z M362,316h14V52h-14V316z M394,279h14V89h-14V279z M426,223h14v-82h-14V223z
			 M458,209h14v-50h-14V209z M490,271h14V99h-14V271z M522,224h14v-84h-14V224z M554,159v50h14v-50H554z"/>
	</g>
</g>
<g>
	<path class="st2" d="M0.6,537.7v-97.8h20.7v80.7H61v17.1H0.6z"/>
	<path class="st2" d="M172.3,488.6c0,16.2-4,28.6-12,37.3c-8,8.7-19.5,13-34.5,13s-26.5-4.3-34.5-13c-8-8.7-12-21.2-12-37.5
		c0-16.3,4-28.7,12.1-37.3c8-8.6,19.6-12.9,34.6-12.9c15,0,26.5,4.3,34.5,13C168.3,460,172.3,472.4,172.3,488.6z M100.9,488.6
		c0,10.9,2.1,19.2,6.2,24.7c4.1,5.5,10.3,8.3,18.6,8.3c16.5,0,24.8-11,24.8-33c0-22-8.2-33-24.7-33c-8.3,0-14.5,2.8-18.7,8.3
		C103,469.5,100.9,477.7,100.9,488.6z"/>
	<path class="st2" d="M235.8,537.7H215v-80.5h-26.6v-17.3h73.9v17.3h-26.6V537.7z"/>
	<path class="st2" d="M363,537.7h-20.7v-42.2h-38.7v42.2h-20.7v-97.8h20.7v38.3h38.7v-38.3H363V537.7z"/>
	<path class="st2" d="M393.2,537.7v-97.8h20.7v97.8H393.2z"/>
	<path class="st2" d="M530.8,537.7h-26.4l-42.5-74h-0.6c0.8,13.1,1.3,22.4,1.3,28v46H444v-97.8h26.2l42.5,73.2h0.5
		c-0.7-12.7-1-21.7-1-27v-46.3h18.7V537.7z"/>
	<path class="st2" d="M598,482.7h38.8v50.7c-6.3,2.1-12.2,3.5-17.8,4.3c-5.6,0.8-11.2,1.2-17,1.2c-14.8,0-26-4.3-33.8-13
		c-7.8-8.7-11.7-21.1-11.7-37.4c0-15.8,4.5-28.1,13.5-36.9c9-8.8,21.5-13.2,37.6-13.2c10,0,19.7,2,29,6l-6.9,16.6
		c-7.1-3.6-14.6-5.4-22.3-5.4c-9,0-16.1,3-21.5,9c-5.4,6-8.1,14.1-8.1,24.3c0,10.6,2.2,18.7,6.5,24.3c4.3,5.6,10.7,8.4,19,8.4
		c4.3,0,8.7-0.4,13.2-1.3V500H598V482.7z"/>
	<path class="st2" d="M723.3,510.5c0,8.8-3.2,15.8-9.5,20.9c-6.4,5.1-15.2,7.6-26.5,7.6c-10.4,0-19.7-2-27.7-5.9v-19.3
		c6.6,2.9,12.2,5,16.8,6.2c4.6,1.2,8.8,1.8,12.5,1.8c4.5,0,8-0.9,10.5-2.6c2.4-1.7,3.6-4.3,3.6-7.8c0-1.9-0.5-3.6-1.6-5.1
		c-1.1-1.5-2.6-2.9-4.7-4.3c-2.1-1.4-6.3-3.6-12.7-6.6c-6-2.8-10.5-5.5-13.4-8.1c-3-2.6-5.4-5.6-7.2-9c-1.8-3.4-2.7-7.4-2.7-12
		c0-8.7,2.9-15.5,8.8-20.4s14-7.4,24.3-7.4c5.1,0,9.9,0.6,14.5,1.8c4.6,1.2,9.4,2.9,14.5,5.1l-6.7,16.1c-5.2-2.1-9.5-3.6-12.9-4.5
		c-3.4-0.8-6.8-1.3-10.1-1.3c-3.9,0-6.9,0.9-9,2.7c-2.1,1.8-3.1,4.2-3.1,7.2c0,1.8,0.4,3.4,1.3,4.8c0.8,1.4,2.2,2.7,4,3.9
		c1.8,1.3,6.2,3.6,13.1,6.9c9.1,4.4,15.4,8.8,18.8,13.1C721.6,498.7,723.3,504.1,723.3,510.5z"/>
</g>
<text transform="matrix(1 0 0 1 -11.6665 537.667)" class="st3 st4 st5 st6">LOTHINGS</text>
</svg>
